<svg xmlns="http://www.w3.org/2000/svg" viewBox="0 0 400 400"><path d="M171 62c-20.1 72.1 22.1 146.9 94.3 167 23.8 6.6 48.9 6.6 72.7 0-13.8 65.3-71.4 112-138.1 112-77.9-.1-141-63.4-140.8-141.2.1-49.2 25.8-94.8 67.8-120.3 13.6-8.3 28.5-14.2 44.1-17.5m29.2-62c-75.8 0-145.1 42.8-179 110.6-49.4 98.8-9.4 218.9 89.4 268.3 98.8 49.3 218.9 9.2 268.3-89.7 28.6-57.2 28-124.7-1.5-181.5-5.1 41.9-43.2 71.8-85.1 66.7s-71.8-43.2-66.7-85.1c4.2-34.9 31.8-62.5 66.7-66.7-.9-.5-1.9-1-2.8-1.5C261.7 7.2 231.1 0 200.2 0z" fill="#ff6300"/></svg>